<?xml version="1.0" standalone="no"?>
<!DOCTYPE svg PUBLIC "-//W3C//DTD SVG 20010904//EN"
 "http://www.w3.org/TR/2001/REC-SVG-20010904/DTD/svg10.dtd">
<svg version="1.0" xmlns="http://www.w3.org/2000/svg"
 width="256.000000pt" height="256.000000pt" viewBox="0 0 256.000000 256.000000"
 preserveAspectRatio="xMidYMid meet">

<g transform="translate(0.000000,256.000000) scale(0.100000,-0.100000)"
fill="#000000" stroke="none">
<path d="M300 2408 c0 -4 16 -8 35 -8 19 0 35 2 35 4 0 2 -16 6 -35 8 -19 2
-35 0 -35 -4z"/>
<path d="M440 2413 c-8 -3 -18 -11 -22 -17 -9 -14 44 -26 75 -18 20 6 19 7 -8
12 -16 3 -29 11 -27 18 1 7 1 12 0 11 -2 0 -10 -3 -18 -6z"/>
<path d="M527 2409 c7 -7 15 -10 18 -7 3 3 -2 9 -12 12 -14 6 -15 5 -6 -5z"/>
<path d="M554 2395 c-9 -19 -8 -22 7 -18 11 3 16 9 13 14 -3 5 0 9 5 9 6 0 11
4 11 8 0 18 -27 8 -36 -13z"/>
<path d="M683 2414 c4 -7 -5 -14 -23 -18 -17 -3 -30 -10 -30 -16 0 -7 6 -8 19
-1 10 6 22 7 26 3 8 -8 137 -11 593 -11 l322 -1 0 -140 0 -139 143 -3 142 -3
3 -402 c1 -222 0 -403 -3 -403 -3 0 -22 11 -43 25 -112 74 -269 82 -394 19
l-46 -23 -489 -1 c-280 -1 -495 -5 -503 -10 -11 -7 -12 -10 -2 -10 7 0 10 -4
7 -10 -4 -7 153 -10 464 -10 l471 0 -39 -57 -39 -58 -421 0 c-232 0 -421 -3
-421 -7 0 -5 -7 -8 -15 -8 -9 0 -12 -6 -9 -15 5 -13 62 -15 428 -15 l423 0
-10 -55 -10 -55 -404 0 c-328 0 -407 -3 -418 -14 -33 -33 1 -36 417 -36 l408
0 6 -27 c3 -16 10 -38 15 -51 5 -13 9 -25 9 -27 0 -3 -191 -5 -424 -5 -339 0
-426 -3 -435 -13 -28 -34 3 -37 450 -37 l437 0 14 -22 c9 -13 30 -38 49 -56
l33 -32 -486 0 c-391 0 -488 -3 -497 -13 -28 -35 1 -37 545 -37 375 0 541 -3
561 -11 44 -18 181 -15 237 5 l49 18 43 -43 44 -43 0 -183 0 -183 -805 0 -805
0 -1 618 c0 339 0 678 1 753 1 114 -1 139 -15 153 -15 14 -15 16 -1 16 14 0
15 15 11 111 -3 61 -8 116 -12 122 -11 18 -14 77 -4 77 11 0 21 72 11 85 -15
18 -23 85 -11 85 6 0 11 7 11 15 0 8 -8 15 -17 15 -9 0 -13 -3 -10 -6 3 -4 2
-14 -3 -23 -4 -9 -5 -45 -1 -79 4 -34 4 -62 -1 -62 -11 0 -5 -264 7 -272 6 -5
6 -8 -1 -8 -9 0 -12 -215 -13 -814 -2 -757 -1 -814 15 -820 22 -8 1640 -18
1665 -11 18 6 19 20 19 181 0 96 3 174 7 174 4 0 59 -52 123 -115 143 -141
154 -144 237 -62 87 88 88 86 -129 304 -101 101 -184 185 -186 187 -2 2 4 26
13 53 35 101 18 241 -41 335 l-24 38 0 443 0 443 -153 152 -154 152 -396 -1
c-327 -2 -394 -4 -390 -16 7 -19 -7 -16 -22 4 -11 15 -17 15 -40 5 -14 -7 -23
-8 -20 -2 4 6 -5 10 -20 10 -18 0 -24 -4 -19 -12 5 -8 0 -7 -11 2 -10 8 -16
10 -12 4z m262 -14 c4 -6 -6 -10 -22 -10 -22 0 -25 2 -13 10 19 12 27 12 35 0z
m800 -170 l100 -100 -108 0 -107 0 0 100 c0 55 3 100 8 100 4 0 52 -45 107
-100z m-1485 -130 c0 -5 -4 -10 -10 -10 -5 0 -10 5 -10 10 0 6 5 10 10 10 6 0
10 -4 10 -10z m0 -240 c0 -5 -4 -10 -10 -10 -5 0 -10 5 -10 10 0 6 5 10 10 10
6 0 10 -4 10 -10z m0 -40 c0 -5 -4 -10 -10 -10 -5 0 -10 5 -10 10 0 6 5 10 10
10 6 0 10 -4 10 -10z m1484 -520 c73 -28 147 -99 183 -175 24 -51 28 -73 28
-145 0 -71 -4 -94 -26 -141 -114 -242 -447 -267 -596 -45 -41 61 -56 113 -56
197 0 140 105 277 243 320 52 15 168 10 224 -11z m373 -712 c95 -95 173 -180
173 -188 0 -9 -20 -36 -45 -60 l-45 -45 -181 181 -180 180 48 51 c26 27 50 51
53 52 3 0 82 -77 177 -171z"/>
<path d="M1554 1211 c-44 -20 -78 -74 -72 -114 5 -33 30 -26 43 12 23 70 100
94 145 46 47 -50 23 -126 -44 -143 l-31 -8 0 -80 c0 -64 3 -79 15 -79 11 0 16
15 18 62 3 54 6 62 25 67 67 17 105 111 71 181 -17 36 -75 75 -114 75 -8 0
-33 -9 -56 -19z"/>
<path d="M1586 784 c-9 -8 -16 -19 -16 -24 0 -5 7 -16 16 -24 8 -9 19 -16 24
-16 5 0 16 7 24 16 9 8 16 19 16 24 0 5 -7 16 -16 24 -8 9 -19 16 -24 16 -5 0
-16 -7 -24 -16z"/>
<path d="M388 2403 c7 -3 16 -2 19 1 4 3 -2 6 -13 5 -11 0 -14 -3 -6 -6z"/>
<path d="M320 2380 c0 -5 5 -10 11 -10 5 0 7 5 4 10 -3 6 -8 10 -11 10 -2 0
-4 -4 -4 -10z"/>
<path d="M595 2380 c3 -5 11 -10 16 -10 6 0 7 5 4 10 -3 6 -11 10 -16 10 -6 0
-7 -4 -4 -10z"/>
<path d="M829 2246 c-2 -2 -34 -6 -71 -9 -65 -6 -139 -34 -155 -59 -4 -7 -17
-18 -28 -24 -11 -6 -20 -16 -20 -22 0 -6 -17 -27 -38 -46 -21 -19 -36 -40 -32
-46 3 -5 2 -10 -2 -10 -16 0 -40 -54 -42 -95 -1 -21 -6 -44 -11 -50 -9 -11 -9
-95 0 -95 3 0 6 -16 7 -35 1 -19 9 -47 17 -62 8 -16 24 -47 36 -70 33 -65 122
-139 190 -158 3 -1 19 -8 35 -15 49 -22 199 -17 265 8 66 26 145 90 189 152
81 118 94 273 34 403 -18 37 -37 67 -42 67 -6 0 -11 5 -11 10 0 15 -72 80 -82
74 -4 -3 -8 1 -8 8 0 21 -112 68 -173 72 -30 3 -57 3 -58 2z m60 -35 c10 -6
31 -12 47 -15 16 -2 30 -5 32 -5 1 -1 5 -1 8 0 4 0 10 -3 13 -8 3 -4 25 -20
48 -35 63 -41 89 -71 125 -145 28 -59 33 -80 35 -153 2 -77 -1 -91 -31 -155
-18 -38 -40 -76 -48 -83 -14 -11 -17 -9 -23 19 -11 49 -38 92 -72 114 l-31 20
-4 134 c-2 94 -7 136 -16 139 -7 2 -12 11 -12 19 0 19 -46 63 -65 63 -8 0 -16
4 -19 9 -7 10 -66 8 -84 -3 -7 -4 -12 -3 -12 3 0 5 -13 3 -30 -5 -16 -9 -30
-23 -30 -32 0 -12 -3 -13 -8 -5 -6 9 -14 3 -27 -19 -19 -33 -25 -81 -28 -225
-2 -73 -5 -84 -25 -98 -28 -20 -62 -86 -62 -120 0 -14 -4 -25 -8 -25 -11 0
-49 29 -39 30 5 0 -1 13 -13 30 -12 16 -24 42 -26 57 -3 15 -8 31 -11 36 -3 6
-8 41 -9 79 -2 39 -6 78 -9 89 -4 12 -2 18 5 17 7 -2 14 8 16 22 3 13 8 27 12
30 4 3 15 17 25 33 13 19 14 27 5 27 -9 0 -9 3 -2 8 6 4 13 15 17 25 4 10 21
23 37 29 17 6 29 13 26 16 -6 5 26 27 57 38 9 3 17 10 17 14 0 11 25 19 78 26
26 3 49 7 51 10 8 8 72 4 90 -5z m-13 -122 c42 -15 62 -55 69 -137 3 -42 7
-90 9 -107 3 -33 -12 -75 -27 -75 -6 0 -7 29 -2 75 8 84 -8 173 -32 182 -7 3
-22 -2 -32 -11 -11 -10 -36 -16 -69 -16 -38 0 -52 -4 -52 -14 0 -8 -5 -16 -10
-18 -17 -5 -16 -119 2 -153 8 -16 13 -35 11 -41 -5 -15 -43 -6 -44 10 -9 137
-8 186 8 233 15 46 22 54 62 72 44 19 57 19 107 0z m8 -141 c20 -75 -9 -158
-55 -158 -45 0 -88 84 -73 144 5 22 12 25 57 29 29 2 55 4 58 5 4 1 9 -8 13
-20z m-14 -196 c0 -11 -32 -62 -39 -62 -7 0 -31 43 -31 55 0 2 8 5 18 7 22 4
52 5 52 0z m-87 -71 c23 -41 27 -61 27 -126 l0 -78 -46 6 c-25 2 -50 9 -54 13
-5 5 -10 36 -12 69 -2 45 -7 60 -18 60 -11 0 -15 -12 -16 -43 -1 -53 -16 -71
-39 -48 -17 17 -30 116 -15 116 5 0 12 9 15 21 9 27 63 59 101 59 27 0 34 -7
57 -49z m210 38 c36 -16 57 -60 57 -121 0 -42 -4 -56 -19 -65 -19 -12 -20 -9
-23 40 -2 40 -7 53 -20 55 -16 3 -18 -5 -18 -62 0 -36 -4 -68 -10 -71 -5 -3
-32 -9 -60 -12 l-50 -6 0 76 c0 68 3 82 31 127 33 54 60 63 112 39z"/>
<path d="M1321 1966 c-25 -30 12 -37 205 -34 181 3 189 4 189 23 0 19 -7 20
-192 22 -149 2 -193 0 -202 -11z"/>
<path d="M1315 1840 c-16 -26 15 -30 206 -30 191 0 199 1 199 20 0 18 -8 19
-200 19 -116 0 -202 -4 -205 -9z"/>
<path d="M1319 1714 c-25 -30 6 -34 202 -32 186 3 194 4 194 23 0 19 -7 20
-192 21 -156 2 -195 -1 -204 -12z"/>
<path d="M1250 1580 c0 -19 7 -20 235 -20 228 0 235 1 235 20 0 19 -7 20 -235
20 -228 0 -235 -1 -235 -20z"/>
<path d="M1172 1453 c3 -17 25 -18 276 -21 267 -2 272 -2 272 18 0 20 -6 20
-276 20 -257 0 -275 -1 -272 -17z"/>
<path d="M396 495 c-3 -10 1 -18 12 -23 9 -3 314 -6 677 -7 653 0 660 0 660
20 0 20 -8 20 -671 23 -598 2 -672 0 -678 -13z"/>
<path d="M397 335 c-4 -8 -2 -17 3 -20 13 -8 1339 -10 1346 -2 4 3 4 13 1 22
-6 13 -82 15 -676 15 -579 0 -670 -2 -674 -15z"/>
</g>
</svg>
